<?xml version="1.0" encoding="UTF-8"?>
<!DOCTYPE svg PUBLIC "-//W3C//DTD SVG 1.1//EN" "http://www.w3.org/Graphics/SVG/1.1/DTD/svg11.dtd">
<svg xmlns="http://www.w3.org/2000/svg" version="1.1" viewBox="0 0 61 61" stroke="none">
	<rect width="100%" height="100%" fill="#FFFFFF"/>
	<path d="M4,4h1v1h-1z M5,4h1v1h-1z M6,4h1v1h-1z M7,4h1v1h-1z M8,4h1v1h-1z M9,4h1v1h-1z M10,4h1v1h-1z M12,4h1v1h-1z M16,4h1v1h-1z M18,4h1v1h-1z M19,4h1v1h-1z M21,4h1v1h-1z M25,4h1v1h-1z M26,4h1v1h-1z M29,4h1v1h-1z M30,4h1v1h-1z M35,4h1v1h-1z M36,4h1v1h-1z M37,4h1v1h-1z M41,4h1v1h-1z M43,4h1v1h-1z M44,4h1v1h-1z M45,4h1v1h-1z M46,4h1v1h-1z M50,4h1v1h-1z M51,4h1v1h-1z M52,4h1v1h-1z M53,4h1v1h-1z M54,4h1v1h-1z M55,4h1v1h-1z M56,4h1v1h-1z M4,5h1v1h-1z M10,5h1v1h-1z M12,5h1v1h-1z M13,5h1v1h-1z M14,5h1v1h-1z M16,5h1v1h-1z M17,5h1v1h-1z M19,5h1v1h-1z M20,5h1v1h-1z M21,5h1v1h-1z M22,5h1v1h-1z M23,5h1v1h-1z M24,5h1v1h-1z M25,5h1v1h-1z M26,5h1v1h-1z M28,5h1v1h-1z M30,5h1v1h-1z M34,5h1v1h-1z M37,5h1v1h-1z M40,5h1v1h-1z M42,5h1v1h-1z M43,5h1v1h-1z M46,5h1v1h-1z M47,5h1v1h-1z M50,5h1v1h-1z M56,5h1v1h-1z M4,6h1v1h-1z M6,6h1v1h-1z M7,6h1v1h-1z M8,6h1v1h-1z M10,6h1v1h-1z M12,6h1v1h-1z M14,6h1v1h-1z M17,6h1v1h-1z M20,6h1v1h-1z M22,6h1v1h-1z M26,6h1v1h-1z M27,6h1v1h-1z M28,6h1v1h-1z M30,6h1v1h-1z M32,6h1v1h-1z M33,6h1v1h-1z M34,6h1v1h-1z M38,6h1v1h-1z M40,6h1v1h-1z M42,6h1v1h-1z M43,6h1v1h-1z M44,6h1v1h-1z M47,6h1v1h-1z M50,6h1v1h-1z M52,6h1v1h-1z M53,6h1v1h-1z M54,6h1v1h-1z M56,6h1v1h-1z M4,7h1v1h-1z M6,7h1v1h-1z M7,7h1v1h-1z M8,7h1v1h-1z M10,7h1v1h-1z M13,7h1v1h-1z M14,7h1v1h-1z M17,7h1v1h-1z M18,7h1v1h-1z M19,7h1v1h-1z M21,7h1v1h-1z M22,7h1v1h-1z M23,7h1v1h-1z M24,7h1v1h-1z M26,7h1v1h-1z M28,7h1v1h-1z M29,7h1v1h-1z M34,7h1v1h-1z M35,7h1v1h-1z M37,7h1v1h-1z M38,7h1v1h-1z M39,7h1v1h-1z M41,7h1v1h-1z M45,7h1v1h-1z M46,7h1v1h-1z M48,7h1v1h-1z M50,7h1v1h-1z M52,7h1v1h-1z M53,7h1v1h-1z M54,7h1v1h-1z M56,7h1v1h-1z M4,8h1v1h-1z M6,8h1v1h-1z M7,8h1v1h-1z M8,8h1v1h-1z M10,8h1v1h-1z M13,8h1v1h-1z M16,8h1v1h-1z M18,8h1v1h-1z M21,8h1v1h-1z M24,8h1v1h-1z M25,8h1v1h-1z M27,8h1v1h-1z M28,8h1v1h-1z M29,8h1v1h-1z M30,8h1v1h-1z M31,8h1v1h-1z M32,8h1v1h-1z M33,8h1v1h-1z M35,8h1v1h-1z M37,8h1v1h-1z M41,8h1v1h-1z M43,8h1v1h-1z M45,8h1v1h-1z M46,8h1v1h-1z M50,8h1v1h-1z M52,8h1v1h-1z M53,8h1v1h-1z M54,8h1v1h-1z M56,8h1v1h-1z M4,9h1v1h-1z M10,9h1v1h-1z M12,9h1v1h-1z M16,9h1v1h-1z M18,9h1v1h-1z M19,9h1v1h-1z M20,9h1v1h-1z M25,9h1v1h-1z M26,9h1v1h-1z M27,9h1v1h-1z M28,9h1v1h-1z M32,9h1v1h-1z M33,9h1v1h-1z M34,9h1v1h-1z M35,9h1v1h-1z M36,9h1v1h-1z M37,9h1v1h-1z M39,9h1v1h-1z M42,9h1v1h-1z M44,9h1v1h-1z M46,9h1v1h-1z M50,9h1v1h-1z M56,9h1v1h-1z M4,10h1v1h-1z M5,10h1v1h-1z M6,10h1v1h-1z M7,10h1v1h-1z M8,10h1v1h-1z M9,10h1v1h-1z M10,10h1v1h-1z M12,10h1v1h-1z M14,10h1v1h-1z M16,10h1v1h-1z M18,10h1v1h-1z M20,10h1v1h-1z M22,10h1v1h-1z M24,10h1v1h-1z M26,10h1v1h-1z M28,10h1v1h-1z M30,10h1v1h-1z M32,10h1v1h-1z M34,10h1v1h-1z M36,10h1v1h-1z M38,10h1v1h-1z M40,10h1v1h-1z M42,10h1v1h-1z M44,10h1v1h-1z M46,10h1v1h-1z M48,10h1v1h-1z M50,10h1v1h-1z M51,10h1v1h-1z M52,10h1v1h-1z M53,10h1v1h-1z M54,10h1v1h-1z M55,10h1v1h-1z M56,10h1v1h-1z M12,11h1v1h-1z M13,11h1v1h-1z M14,11h1v1h-1z M15,11h1v1h-1z M16,11h1v1h-1z M17,11h1v1h-1z M18,11h1v1h-1z M21,11h1v1h-1z M23,11h1v1h-1z M24,11h1v1h-1z M26,11h1v1h-1z M27,11h1v1h-1z M28,11h1v1h-1z M32,11h1v1h-1z M33,11h1v1h-1z M34,11h1v1h-1z M35,11h1v1h-1z M38,11h1v1h-1z M39,11h1v1h-1z M44,11h1v1h-1z M45,11h1v1h-1z M47,11h1v1h-1z M48,11h1v1h-1z M6,12h1v1h-1z M7,12h1v1h-1z M8,12h1v1h-1z M10,12h1v1h-1z M12,12h1v1h-1z M15,12h1v1h-1z M18,12h1v1h-1z M21,12h1v1h-1z M22,12h1v1h-1z M23,12h1v1h-1z M28,12h1v1h-1z M29,12h1v1h-1z M30,12h1v1h-1z M31,12h1v1h-1z M32,12h1v1h-1z M33,12h1v1h-1z M34,12h1v1h-1z M35,12h1v1h-1z M40,12h1v1h-1z M42,12h1v1h-1z M45,12h1v1h-1z M46,12h1v1h-1z M47,12h1v1h-1z M48,12h1v1h-1z M49,12h1v1h-1z M50,12h1v1h-1z M51,12h1v1h-1z M54,12h1v1h-1z M55,12h1v1h-1z M56,12h1v1h-1z M8,13h1v1h-1z M9,13h1v1h-1z M11,13h1v1h-1z M13,13h1v1h-1z M15,13h1v1h-1z M23,13h1v1h-1z M24,13h1v1h-1z M25,13h1v1h-1z M27,13h1v1h-1z M28,13h1v1h-1z M30,13h1v1h-1z M34,13h1v1h-1z M35,13h1v1h-1z M38,13h1v1h-1z M39,13h1v1h-1z M41,13h1v1h-1z M44,13h1v1h-1z M46,13h1v1h-1z M49,13h1v1h-1z M51,13h1v1h-1z M52,13h1v1h-1z M53,13h1v1h-1z M55,13h1v1h-1z M56,13h1v1h-1z M10,14h1v1h-1z M13,14h1v1h-1z M16,14h1v1h-1z M18,14h1v1h-1z M20,14h1v1h-1z M22,14h1v1h-1z M23,14h1v1h-1z M24,14h1v1h-1z M26,14h1v1h-1z M30,14h1v1h-1z M31,14h1v1h-1z M35,14h1v1h-1z M36,14h1v1h-1z M38,14h1v1h-1z M40,14h1v1h-1z M42,14h1v1h-1z M44,14h1v1h-1z M47,14h1v1h-1z M48,14h1v1h-1z M50,14h1v1h-1z M52,14h1v1h-1z M53,14h1v1h-1z M4,15h1v1h-1z M5,15h1v1h-1z M6,15h1v1h-1z M7,15h1v1h-1z M8,15h1v1h-1z M9,15h1v1h-1z M11,15h1v1h-1z M12,15h1v1h-1z M13,15h1v1h-1z M15,15h1v1h-1z M17,15h1v1h-1z M21,15h1v1h-1z M23,15h1v1h-1z M25,15h1v1h-1z M27,15h1v1h-1z M28,15h1v1h-1z M29,15h1v1h-1z M31,15h1v1h-1z M33,15h1v1h-1z M35,15h1v1h-1z M36,15h1v1h-1z M37,15h1v1h-1z M39,15h1v1h-1z M43,15h1v1h-1z M45,15h1v1h-1z M49,15h1v1h-1z M55,15h1v1h-1z M4,16h1v1h-1z M5,16h1v1h-1z M10,16h1v1h-1z M11,16h1v1h-1z M13,16h1v1h-1z M14,16h1v1h-1z M16,16h1v1h-1z M21,16h1v1h-1z M22,16h1v1h-1z M24,16h1v1h-1z M25,16h1v1h-1z M26,16h1v1h-1z M28,16h1v1h-1z M29,16h1v1h-1z M30,16h1v1h-1z M35,16h1v1h-1z M36,16h1v1h-1z M40,16h1v1h-1z M41,16h1v1h-1z M42,16h1v1h-1z M44,16h1v1h-1z M46,16h1v1h-1z M47,16h1v1h-1z M51,16h1v1h-1z M52,16h1v1h-1z M54,16h1v1h-1z M56,16h1v1h-1z M5,17h1v1h-1z M6,17h1v1h-1z M8,17h1v1h-1z M9,17h1v1h-1z M11,17h1v1h-1z M12,17h1v1h-1z M13,17h1v1h-1z M15,17h1v1h-1z M16,17h1v1h-1z M17,17h1v1h-1z M18,17h1v1h-1z M22,17h1v1h-1z M23,17h1v1h-1z M26,17h1v1h-1z M27,17h1v1h-1z M29,17h1v1h-1z M33,17h1v1h-1z M35,17h1v1h-1z M37,17h1v1h-1z M38,17h1v1h-1z M39,17h1v1h-1z M40,17h1v1h-1z M43,17h1v1h-1z M44,17h1v1h-1z M45,17h1v1h-1z M46,17h1v1h-1z M49,17h1v1h-1z M52,17h1v1h-1z M56,17h1v1h-1z M5,18h1v1h-1z M10,18h1v1h-1z M11,18h1v1h-1z M12,18h1v1h-1z M16,18h1v1h-1z M20,18h1v1h-1z M22,18h1v1h-1z M24,18h1v1h-1z M27,18h1v1h-1z M29,18h1v1h-1z M32,18h1v1h-1z M35,18h1v1h-1z M36,18h1v1h-1z M37,18h1v1h-1z M38,18h1v1h-1z M40,18h1v1h-1z M41,18h1v1h-1z M42,18h1v1h-1z M44,18h1v1h-1z M47,18h1v1h-1z M52,18h1v1h-1z M53,18h1v1h-1z M4,19h1v1h-1z M5,19h1v1h-1z M7,19h1v1h-1z M8,19h1v1h-1z M11,19h1v1h-1z M14,19h1v1h-1z M16,19h1v1h-1z M18,19h1v1h-1z M19,19h1v1h-1z M21,19h1v1h-1z M23,19h1v1h-1z M24,19h1v1h-1z M26,19h1v1h-1z M28,19h1v1h-1z M34,19h1v1h-1z M37,19h1v1h-1z M39,19h1v1h-1z M41,19h1v1h-1z M43,19h1v1h-1z M44,19h1v1h-1z M45,19h1v1h-1z M46,19h1v1h-1z M53,19h1v1h-1z M56,19h1v1h-1z M4,20h1v1h-1z M5,20h1v1h-1z M10,20h1v1h-1z M11,20h1v1h-1z M13,20h1v1h-1z M14,20h1v1h-1z M18,20h1v1h-1z M19,20h1v1h-1z M21,20h1v1h-1z M22,20h1v1h-1z M23,20h1v1h-1z M25,20h1v1h-1z M26,20h1v1h-1z M28,20h1v1h-1z M29,20h1v1h-1z M30,20h1v1h-1z M33,20h1v1h-1z M35,20h1v1h-1z M40,20h1v1h-1z M45,20h1v1h-1z M46,20h1v1h-1z M47,20h1v1h-1z M48,20h1v1h-1z M49,20h1v1h-1z M51,20h1v1h-1z M52,20h1v1h-1z M53,20h1v1h-1z M54,20h1v1h-1z M55,20h1v1h-1z M4,21h1v1h-1z M6,21h1v1h-1z M8,21h1v1h-1z M14,21h1v1h-1z M17,21h1v1h-1z M18,21h1v1h-1z M19,21h1v1h-1z M20,21h1v1h-1z M21,21h1v1h-1z M24,21h1v1h-1z M25,21h1v1h-1z M32,21h1v1h-1z M33,21h1v1h-1z M35,21h1v1h-1z M36,21h1v1h-1z M39,21h1v1h-1z M40,21h1v1h-1z M43,21h1v1h-1z M44,21h1v1h-1z M45,21h1v1h-1z M46,21h1v1h-1z M52,21h1v1h-1z M53,21h1v1h-1z M55,21h1v1h-1z M56,21h1v1h-1z M4,22h1v1h-1z M9,22h1v1h-1z M10,22h1v1h-1z M11,22h1v1h-1z M12,22h1v1h-1z M13,22h1v1h-1z M19,22h1v1h-1z M20,22h1v1h-1z M22,22h1v1h-1z M23,22h1v1h-1z M24,22h1v1h-1z M26,22h1v1h-1z M29,22h1v1h-1z M30,22h1v1h-1z M31,22h1v1h-1z M33,22h1v1h-1z M35,22h1v1h-1z M36,22h1v1h-1z M37,22h1v1h-1z M41,22h1v1h-1z M42,22h1v1h-1z M43,22h1v1h-1z M45,22h1v1h-1z M48,22h1v1h-1z M50,22h1v1h-1z M51,22h1v1h-1z M52,22h1v1h-1z M53,22h1v1h-1z M5,23h1v1h-1z M7,23h1v1h-1z M9,23h1v1h-1z M13,23h1v1h-1z M16,23h1v1h-1z M17,23h1v1h-1z M18,23h1v1h-1z M19,23h1v1h-1z M20,23h1v1h-1z M22,23h1v1h-1z M24,23h1v1h-1z M27,23h1v1h-1z M32,23h1v1h-1z M34,23h1v1h-1z M36,23h1v1h-1z M38,23h1v1h-1z M39,23h1v1h-1z M40,23h1v1h-1z M43,23h1v1h-1z M44,23h1v1h-1z M45,23h1v1h-1z M46,23h1v1h-1z M47,23h1v1h-1z M49,23h1v1h-1z M51,23h1v1h-1z M53,23h1v1h-1z M56,23h1v1h-1z M5,24h1v1h-1z M6,24h1v1h-1z M8,24h1v1h-1z M10,24h1v1h-1z M11,24h1v1h-1z M13,24h1v1h-1z M15,24h1v1h-1z M17,24h1v1h-1z M21,24h1v1h-1z M22,24h1v1h-1z M24,24h1v1h-1z M25,24h1v1h-1z M29,24h1v1h-1z M30,24h1v1h-1z M32,24h1v1h-1z M34,24h1v1h-1z M35,24h1v1h-1z M36,24h1v1h-1z M38,24h1v1h-1z M40,24h1v1h-1z M41,24h1v1h-1z M45,24h1v1h-1z M46,24h1v1h-1z M48,24h1v1h-1z M49,24h1v1h-1z M50,24h1v1h-1z M52,24h1v1h-1z M54,24h1v1h-1z M7,25h1v1h-1z M9,25h1v1h-1z M13,25h1v1h-1z M18,25h1v1h-1z M19,25h1v1h-1z M21,25h1v1h-1z M22,25h1v1h-1z M23,25h1v1h-1z M24,25h1v1h-1z M25,25h1v1h-1z M26,25h1v1h-1z M27,25h1v1h-1z M28,25h1v1h-1z M30,25h1v1h-1z M32,25h1v1h-1z M35,25h1v1h-1z M38,25h1v1h-1z M39,25h1v1h-1z M40,25h1v1h-1z M43,25h1v1h-1z M46,25h1v1h-1z M47,25h1v1h-1z M52,25h1v1h-1z M55,25h1v1h-1z M56,25h1v1h-1z M9,26h1v1h-1z M10,26h1v1h-1z M14,26h1v1h-1z M15,26h1v1h-1z M16,26h1v1h-1z M17,26h1v1h-1z M19,26h1v1h-1z M20,26h1v1h-1z M22,26h1v1h-1z M25,26h1v1h-1z M29,26h1v1h-1z M30,26h1v1h-1z M33,26h1v1h-1z M35,26h1v1h-1z M36,26h1v1h-1z M37,26h1v1h-1z M40,26h1v1h-1z M41,26h1v1h-1z M43,26h1v1h-1z M44,26h1v1h-1z M45,26h1v1h-1z M47,26h1v1h-1z M50,26h1v1h-1z M53,26h1v1h-1z M54,26h1v1h-1z M4,27h1v1h-1z M5,27h1v1h-1z M6,27h1v1h-1z M7,27h1v1h-1z M11,27h1v1h-1z M16,27h1v1h-1z M18,27h1v1h-1z M20,27h1v1h-1z M22,27h1v1h-1z M23,27h1v1h-1z M24,27h1v1h-1z M25,27h1v1h-1z M26,27h1v1h-1z M27,27h1v1h-1z M28,27h1v1h-1z M30,27h1v1h-1z M31,27h1v1h-1z M32,27h1v1h-1z M33,27h1v1h-1z M34,27h1v1h-1z M35,27h1v1h-1z M37,27h1v1h-1z M39,27h1v1h-1z M44,27h1v1h-1z M48,27h1v1h-1z M49,27h1v1h-1z M53,27h1v1h-1z M55,27h1v1h-1z M5,28h1v1h-1z M6,28h1v1h-1z M7,28h1v1h-1z M8,28h1v1h-1z M9,28h1v1h-1z M10,28h1v1h-1z M11,28h1v1h-1z M12,28h1v1h-1z M13,28h1v1h-1z M15,28h1v1h-1z M18,28h1v1h-1z M22,28h1v1h-1z M23,28h1v1h-1z M25,28h1v1h-1z M26,28h1v1h-1z M27,28h1v1h-1z M28,28h1v1h-1z M29,28h1v1h-1z M30,28h1v1h-1z M31,28h1v1h-1z M32,28h1v1h-1z M35,28h1v1h-1z M36,28h1v1h-1z M37,28h1v1h-1z M38,28h1v1h-1z M40,28h1v1h-1z M43,28h1v1h-1z M46,28h1v1h-1z M48,28h1v1h-1z M49,28h1v1h-1z M50,28h1v1h-1z M51,28h1v1h-1z M52,28h1v1h-1z M54,28h1v1h-1z M4,29h1v1h-1z M5,29h1v1h-1z M7,29h1v1h-1z M8,29h1v1h-1z M12,29h1v1h-1z M14,29h1v1h-1z M18,29h1v1h-1z M22,29h1v1h-1z M23,29h1v1h-1z M24,29h1v1h-1z M26,29h1v1h-1z M27,29h1v1h-1z M28,29h1v1h-1z M32,29h1v1h-1z M33,29h1v1h-1z M35,29h1v1h-1z M36,29h1v1h-1z M37,29h1v1h-1z M38,29h1v1h-1z M39,29h1v1h-1z M41,29h1v1h-1z M45,29h1v1h-1z M46,29h1v1h-1z M47,29h1v1h-1z M48,29h1v1h-1z M52,29h1v1h-1z M55,29h1v1h-1z M56,29h1v1h-1z M8,30h1v1h-1z M10,30h1v1h-1z M12,30h1v1h-1z M13,30h1v1h-1z M14,30h1v1h-1z M15,30h1v1h-1z M16,30h1v1h-1z M18,30h1v1h-1z M20,30h1v1h-1z M21,30h1v1h-1z M22,30h1v1h-1z M24,30h1v1h-1z M25,30h1v1h-1z M26,30h1v1h-1z M28,30h1v1h-1z M30,30h1v1h-1z M32,30h1v1h-1z M35,30h1v1h-1z M40,30h1v1h-1z M42,30h1v1h-1z M44,30h1v1h-1z M47,30h1v1h-1z M48,30h1v1h-1z M50,30h1v1h-1z M52,30h1v1h-1z M54,30h1v1h-1z M4,31h1v1h-1z M5,31h1v1h-1z M6,31h1v1h-1z M7,31h1v1h-1z M8,31h1v1h-1z M12,31h1v1h-1z M17,31h1v1h-1z M18,31h1v1h-1z M19,31h1v1h-1z M20,31h1v1h-1z M21,31h1v1h-1z M22,31h1v1h-1z M26,31h1v1h-1z M28,31h1v1h-1z M32,31h1v1h-1z M34,31h1v1h-1z M36,31h1v1h-1z M42,31h1v1h-1z M43,31h1v1h-1z M44,31h1v1h-1z M45,31h1v1h-1z M48,31h1v1h-1z M52,31h1v1h-1z M55,31h1v1h-1z M5,32h1v1h-1z M6,32h1v1h-1z M7,32h1v1h-1z M8,32h1v1h-1z M9,32h1v1h-1z M10,32h1v1h-1z M11,32h1v1h-1z M12,32h1v1h-1z M14,32h1v1h-1z M15,32h1v1h-1z M18,32h1v1h-1z M19,32h1v1h-1z M23,32h1v1h-1z M24,32h1v1h-1z M26,32h1v1h-1z M28,32h1v1h-1z M29,32h1v1h-1z M30,32h1v1h-1z M31,32h1v1h-1z M32,32h1v1h-1z M33,32h1v1h-1z M34,32h1v1h-1z M36,32h1v1h-1z M37,32h1v1h-1z M38,32h1v1h-1z M39,32h1v1h-1z M40,32h1v1h-1z M41,32h1v1h-1z M47,32h1v1h-1z M48,32h1v1h-1z M49,32h1v1h-1z M50,32h1v1h-1z M51,32h1v1h-1z M52,32h1v1h-1z M7,33h1v1h-1z M8,33h1v1h-1z M9,33h1v1h-1z M11,33h1v1h-1z M12,33h1v1h-1z M20,33h1v1h-1z M23,33h1v1h-1z M24,33h1v1h-1z M29,33h1v1h-1z M33,33h1v1h-1z M35,33h1v1h-1z M36,33h1v1h-1z M39,33h1v1h-1z M40,33h1v1h-1z M41,33h1v1h-1z M44,33h1v1h-1z M45,33h1v1h-1z M47,33h1v1h-1z M50,33h1v1h-1z M51,33h1v1h-1z M52,33h1v1h-1z M54,33h1v1h-1z M55,33h1v1h-1z M56,33h1v1h-1z M4,34h1v1h-1z M5,34h1v1h-1z M6,34h1v1h-1z M8,34h1v1h-1z M10,34h1v1h-1z M11,34h1v1h-1z M12,34h1v1h-1z M19,34h1v1h-1z M20,34h1v1h-1z M22,34h1v1h-1z M23,34h1v1h-1z M24,34h1v1h-1z M27,34h1v1h-1z M32,34h1v1h-1z M33,34h1v1h-1z M34,34h1v1h-1z M37,34h1v1h-1z M38,34h1v1h-1z M39,34h1v1h-1z M40,34h1v1h-1z M42,34h1v1h-1z M46,34h1v1h-1z M47,34h1v1h-1z M4,35h1v1h-1z M5,35h1v1h-1z M6,35h1v1h-1z M7,35h1v1h-1z M8,35h1v1h-1z M11,35h1v1h-1z M12,35h1v1h-1z M14,35h1v1h-1z M16,35h1v1h-1z M18,35h1v1h-1z M20,35h1v1h-1z M21,35h1v1h-1z M24,35h1v1h-1z M25,35h1v1h-1z M28,35h1v1h-1z M32,35h1v1h-1z M33,35h1v1h-1z M35,35h1v1h-1z M36,35h1v1h-1z M39,35h1v1h-1z M44,35h1v1h-1z M47,35h1v1h-1z M48,35h1v1h-1z M49,35h1v1h-1z M50,35h1v1h-1z M51,35h1v1h-1z M53,35h1v1h-1z M5,36h1v1h-1z M6,36h1v1h-1z M9,36h1v1h-1z M10,36h1v1h-1z M11,36h1v1h-1z M16,36h1v1h-1z M17,36h1v1h-1z M18,36h1v1h-1z M21,36h1v1h-1z M23,36h1v1h-1z M25,36h1v1h-1z M29,36h1v1h-1z M30,36h1v1h-1z M32,36h1v1h-1z M37,36h1v1h-1z M38,36h1v1h-1z M40,36h1v1h-1z M41,36h1v1h-1z M42,36h1v1h-1z M48,36h1v1h-1z M51,36h1v1h-1z M53,36h1v1h-1z M54,36h1v1h-1z M4,37h1v1h-1z M11,37h1v1h-1z M16,37h1v1h-1z M19,37h1v1h-1z M21,37h1v1h-1z M22,37h1v1h-1z M23,37h1v1h-1z M27,37h1v1h-1z M30,37h1v1h-1z M31,37h1v1h-1z M33,37h1v1h-1z M34,37h1v1h-1z M38,37h1v1h-1z M40,37h1v1h-1z M41,37h1v1h-1z M46,37h1v1h-1z M47,37h1v1h-1z M48,37h1v1h-1z M51,37h1v1h-1z M52,37h1v1h-1z M55,37h1v1h-1z M56,37h1v1h-1z M4,38h1v1h-1z M7,38h1v1h-1z M10,38h1v1h-1z M12,38h1v1h-1z M16,38h1v1h-1z M17,38h1v1h-1z M19,38h1v1h-1z M20,38h1v1h-1z M26,38h1v1h-1z M29,38h1v1h-1z M30,38h1v1h-1z M31,38h1v1h-1z M32,38h1v1h-1z M33,38h1v1h-1z M34,38h1v1h-1z M35,38h1v1h-1z M36,38h1v1h-1z M37,38h1v1h-1z M40,38h1v1h-1z M42,38h1v1h-1z M43,38h1v1h-1z M47,38h1v1h-1z M49,38h1v1h-1z M51,38h1v1h-1z M4,39h1v1h-1z M5,39h1v1h-1z M7,39h1v1h-1z M9,39h1v1h-1z M11,39h1v1h-1z M12,39h1v1h-1z M13,39h1v1h-1z M14,39h1v1h-1z M15,39h1v1h-1z M19,39h1v1h-1z M23,39h1v1h-1z M24,39h1v1h-1z M26,39h1v1h-1z M27,39h1v1h-1z M28,39h1v1h-1z M29,39h1v1h-1z M34,39h1v1h-1z M35,39h1v1h-1z M36,39h1v1h-1z M38,39h1v1h-1z M41,39h1v1h-1z M42,39h1v1h-1z M43,39h1v1h-1z M44,39h1v1h-1z M46,39h1v1h-1z M47,39h1v1h-1z M48,39h1v1h-1z M49,39h1v1h-1z M50,39h1v1h-1z M51,39h1v1h-1z M53,39h1v1h-1z M56,39h1v1h-1z M5,40h1v1h-1z M7,40h1v1h-1z M8,40h1v1h-1z M9,40h1v1h-1z M10,40h1v1h-1z M12,40h1v1h-1z M13,40h1v1h-1z M15,40h1v1h-1z M18,40h1v1h-1z M20,40h1v1h-1z M21,40h1v1h-1z M22,40h1v1h-1z M23,40h1v1h-1z M24,40h1v1h-1z M25,40h1v1h-1z M26,40h1v1h-1z M31,40h1v1h-1z M32,40h1v1h-1z M35,40h1v1h-1z M36,40h1v1h-1z M39,40h1v1h-1z M40,40h1v1h-1z M42,40h1v1h-1z M48,40h1v1h-1z M49,40h1v1h-1z M50,40h1v1h-1z M51,40h1v1h-1z M54,40h1v1h-1z M56,40h1v1h-1z M4,41h1v1h-1z M6,41h1v1h-1z M7,41h1v1h-1z M8,41h1v1h-1z M9,41h1v1h-1z M11,41h1v1h-1z M13,41h1v1h-1z M23,41h1v1h-1z M24,41h1v1h-1z M26,41h1v1h-1z M27,41h1v1h-1z M31,41h1v1h-1z M32,41h1v1h-1z M34,41h1v1h-1z M38,41h1v1h-1z M39,41h1v1h-1z M45,41h1v1h-1z M46,41h1v1h-1z M47,41h1v1h-1z M48,41h1v1h-1z M49,41h1v1h-1z M51,41h1v1h-1z M52,41h1v1h-1z M54,41h1v1h-1z M55,41h1v1h-1z M56,41h1v1h-1z M4,42h1v1h-1z M5,42h1v1h-1z M7,42h1v1h-1z M8,42h1v1h-1z M9,42h1v1h-1z M10,42h1v1h-1z M12,42h1v1h-1z M13,42h1v1h-1z M14,42h1v1h-1z M15,42h1v1h-1z M18,42h1v1h-1z M23,42h1v1h-1z M24,42h1v1h-1z M25,42h1v1h-1z M26,42h1v1h-1z M28,42h1v1h-1z M32,42h1v1h-1z M33,42h1v1h-1z M35,42h1v1h-1z M37,42h1v1h-1z M39,42h1v1h-1z M41,42h1v1h-1z M42,42h1v1h-1z M43,42h1v1h-1z M44,42h1v1h-1z M47,42h1v1h-1z M52,42h1v1h-1z M53,42h1v1h-1z M4,43h1v1h-1z M5,43h1v1h-1z M6,43h1v1h-1z M9,43h1v1h-1z M11,43h1v1h-1z M18,43h1v1h-1z M22,43h1v1h-1z M25,43h1v1h-1z M27,43h1v1h-1z M28,43h1v1h-1z M30,43h1v1h-1z M31,43h1v1h-1z M33,43h1v1h-1z M34,43h1v1h-1z M37,43h1v1h-1z M38,43h1v1h-1z M43,43h1v1h-1z M44,43h1v1h-1z M45,43h1v1h-1z M47,43h1v1h-1z M49,43h1v1h-1z M51,43h1v1h-1z M52,43h1v1h-1z M55,43h1v1h-1z M4,44h1v1h-1z M5,44h1v1h-1z M10,44h1v1h-1z M11,44h1v1h-1z M12,44h1v1h-1z M13,44h1v1h-1z M14,44h1v1h-1z M17,44h1v1h-1z M21,44h1v1h-1z M23,44h1v1h-1z M24,44h1v1h-1z M25,44h1v1h-1z M26,44h1v1h-1z M29,44h1v1h-1z M30,44h1v1h-1z M31,44h1v1h-1z M33,44h1v1h-1z M35,44h1v1h-1z M37,44h1v1h-1z M39,44h1v1h-1z M40,44h1v1h-1z M41,44h1v1h-1z M43,44h1v1h-1z M45,44h1v1h-1z M52,44h1v1h-1z M54,44h1v1h-1z M6,45h1v1h-1z M7,45h1v1h-1z M9,45h1v1h-1z M11,45h1v1h-1z M13,45h1v1h-1z M14,45h1v1h-1z M18,45h1v1h-1z M19,45h1v1h-1z M20,45h1v1h-1z M21,45h1v1h-1z M23,45h1v1h-1z M24,45h1v1h-1z M25,45h1v1h-1z M28,45h1v1h-1z M29,45h1v1h-1z M30,45h1v1h-1z M31,45h1v1h-1z M33,45h1v1h-1z M34,45h1v1h-1z M35,45h1v1h-1z M36,45h1v1h-1z M37,45h1v1h-1z M38,45h1v1h-1z M39,45h1v1h-1z M44,45h1v1h-1z M45,45h1v1h-1z M46,45h1v1h-1z M48,45h1v1h-1z M49,45h1v1h-1z M51,45h1v1h-1z M53,45h1v1h-1z M54,45h1v1h-1z M55,45h1v1h-1z M56,45h1v1h-1z M4,46h1v1h-1z M5,46h1v1h-1z M7,46h1v1h-1z M8,46h1v1h-1z M9,46h1v1h-1z M10,46h1v1h-1z M11,46h1v1h-1z M12,46h1v1h-1z M13,46h1v1h-1z M14,46h1v1h-1z M15,46h1v1h-1z M18,46h1v1h-1z M19,46h1v1h-1z M20,46h1v1h-1z M21,46h1v1h-1z M22,46h1v1h-1z M23,46h1v1h-1z M24,46h1v1h-1z M27,46h1v1h-1z M32,46h1v1h-1z M37,46h1v1h-1z M39,46h1v1h-1z M41,46h1v1h-1z M42,46h1v1h-1z M44,46h1v1h-1z M45,46h1v1h-1z M48,46h1v1h-1z M49,46h1v1h-1z M53,46h1v1h-1z M54,46h1v1h-1z M5,47h1v1h-1z M6,47h1v1h-1z M12,47h1v1h-1z M13,47h1v1h-1z M14,47h1v1h-1z M18,47h1v1h-1z M20,47h1v1h-1z M21,47h1v1h-1z M23,47h1v1h-1z M24,47h1v1h-1z M25,47h1v1h-1z M26,47h1v1h-1z M28,47h1v1h-1z M29,47h1v1h-1z M31,47h1v1h-1z M33,47h1v1h-1z M34,47h1v1h-1z M42,47h1v1h-1z M45,47h1v1h-1z M47,47h1v1h-1z M48,47h1v1h-1z M50,47h1v1h-1z M51,47h1v1h-1z M53,47h1v1h-1z M7,48h1v1h-1z M10,48h1v1h-1z M11,48h1v1h-1z M15,48h1v1h-1z M16,48h1v1h-1z M17,48h1v1h-1z M18,48h1v1h-1z M24,48h1v1h-1z M28,48h1v1h-1z M29,48h1v1h-1z M30,48h1v1h-1z M31,48h1v1h-1z M32,48h1v1h-1z M33,48h1v1h-1z M36,48h1v1h-1z M37,48h1v1h-1z M39,48h1v1h-1z M40,48h1v1h-1z M43,48h1v1h-1z M45,48h1v1h-1z M48,48h1v1h-1z M49,48h1v1h-1z M50,48h1v1h-1z M51,48h1v1h-1z M52,48h1v1h-1z M54,48h1v1h-1z M55,48h1v1h-1z M56,48h1v1h-1z M12,49h1v1h-1z M14,49h1v1h-1z M15,49h1v1h-1z M16,49h1v1h-1z M17,49h1v1h-1z M19,49h1v1h-1z M21,49h1v1h-1z M22,49h1v1h-1z M23,49h1v1h-1z M24,49h1v1h-1z M26,49h1v1h-1z M28,49h1v1h-1z M32,49h1v1h-1z M34,49h1v1h-1z M37,49h1v1h-1z M45,49h1v1h-1z M46,49h1v1h-1z M48,49h1v1h-1z M52,49h1v1h-1z M53,49h1v1h-1z M56,49h1v1h-1z M4,50h1v1h-1z M5,50h1v1h-1z M6,50h1v1h-1z M7,50h1v1h-1z M8,50h1v1h-1z M9,50h1v1h-1z M10,50h1v1h-1z M13,50h1v1h-1z M14,50h1v1h-1z M15,50h1v1h-1z M19,50h1v1h-1z M23,50h1v1h-1z M25,50h1v1h-1z M27,50h1v1h-1z M28,50h1v1h-1z M30,50h1v1h-1z M32,50h1v1h-1z M33,50h1v1h-1z M35,50h1v1h-1z M40,50h1v1h-1z M41,50h1v1h-1z M42,50h1v1h-1z M43,50h1v1h-1z M48,50h1v1h-1z M50,50h1v1h-1z M52,50h1v1h-1z M53,50h1v1h-1z M4,51h1v1h-1z M10,51h1v1h-1z M15,51h1v1h-1z M19,51h1v1h-1z M21,51h1v1h-1z M25,51h1v1h-1z M26,51h1v1h-1z M27,51h1v1h-1z M28,51h1v1h-1z M32,51h1v1h-1z M39,51h1v1h-1z M43,51h1v1h-1z M44,51h1v1h-1z M48,51h1v1h-1z M52,51h1v1h-1z M53,51h1v1h-1z M56,51h1v1h-1z M4,52h1v1h-1z M6,52h1v1h-1z M7,52h1v1h-1z M8,52h1v1h-1z M10,52h1v1h-1z M12,52h1v1h-1z M18,52h1v1h-1z M20,52h1v1h-1z M22,52h1v1h-1z M23,52h1v1h-1z M27,52h1v1h-1z M28,52h1v1h-1z M29,52h1v1h-1z M30,52h1v1h-1z M31,52h1v1h-1z M32,52h1v1h-1z M37,52h1v1h-1z M38,52h1v1h-1z M39,52h1v1h-1z M40,52h1v1h-1z M41,52h1v1h-1z M45,52h1v1h-1z M46,52h1v1h-1z M48,52h1v1h-1z M49,52h1v1h-1z M50,52h1v1h-1z M51,52h1v1h-1z M52,52h1v1h-1z M53,52h1v1h-1z M54,52h1v1h-1z M55,52h1v1h-1z M4,53h1v1h-1z M6,53h1v1h-1z M7,53h1v1h-1z M8,53h1v1h-1z M10,53h1v1h-1z M12,53h1v1h-1z M14,53h1v1h-1z M15,53h1v1h-1z M16,53h1v1h-1z M22,53h1v1h-1z M26,53h1v1h-1z M28,53h1v1h-1z M32,53h1v1h-1z M34,53h1v1h-1z M37,53h1v1h-1z M38,53h1v1h-1z M39,53h1v1h-1z M40,53h1v1h-1z M41,53h1v1h-1z M43,53h1v1h-1z M44,53h1v1h-1z M46,53h1v1h-1z M49,53h1v1h-1z M50,53h1v1h-1z M53,53h1v1h-1z M4,54h1v1h-1z M6,54h1v1h-1z M7,54h1v1h-1z M8,54h1v1h-1z M10,54h1v1h-1z M12,54h1v1h-1z M14,54h1v1h-1z M16,54h1v1h-1z M18,54h1v1h-1z M19,54h1v1h-1z M21,54h1v1h-1z M23,54h1v1h-1z M28,54h1v1h-1z M33,54h1v1h-1z M36,54h1v1h-1z M38,54h1v1h-1z M40,54h1v1h-1z M42,54h1v1h-1z M43,54h1v1h-1z M45,54h1v1h-1z M47,54h1v1h-1z M48,54h1v1h-1z M49,54h1v1h-1z M51,54h1v1h-1z M52,54h1v1h-1z M54,54h1v1h-1z M4,55h1v1h-1z M10,55h1v1h-1z M15,55h1v1h-1z M16,55h1v1h-1z M23,55h1v1h-1z M25,55h1v1h-1z M28,55h1v1h-1z M31,55h1v1h-1z M35,55h1v1h-1z M40,55h1v1h-1z M41,55h1v1h-1z M42,55h1v1h-1z M44,55h1v1h-1z M46,55h1v1h-1z M48,55h1v1h-1z M51,55h1v1h-1z M52,55h1v1h-1z M55,55h1v1h-1z M4,56h1v1h-1z M5,56h1v1h-1z M6,56h1v1h-1z M7,56h1v1h-1z M8,56h1v1h-1z M9,56h1v1h-1z M10,56h1v1h-1z M13,56h1v1h-1z M16,56h1v1h-1z M21,56h1v1h-1z M26,56h1v1h-1z M27,56h1v1h-1z M28,56h1v1h-1z M29,56h1v1h-1z M31,56h1v1h-1z M33,56h1v1h-1z M34,56h1v1h-1z M35,56h1v1h-1z M37,56h1v1h-1z M38,56h1v1h-1z M39,56h1v1h-1z M42,56h1v1h-1z M43,56h1v1h-1z M46,56h1v1h-1z M47,56h1v1h-1z M48,56h1v1h-1z M49,56h1v1h-1z M50,56h1v1h-1z M52,56h1v1h-1z M53,56h1v1h-1z M54,56h1v1h-1z" fill="#000000"/>
</svg>
